<?xml version="1.0" encoding="iso-8859-1"?>
<!-- Generator: Adobe Illustrator 19.0.0, SVG Export Plug-In . SVG Version: 6.00 Build 0)  -->
<svg version="1.1" id="Capa_1" xmlns="http://www.w3.org/2000/svg" xmlns:xlink="http://www.w3.org/1999/xlink" x="0px" y="0px"
	 viewBox="0 0 384 384" style="enable-background:new 0 0 384 384;" xml:space="preserve">
<polygon style="fill:#EFEEEE;" points="72,8 376,8 376,280 280,376 72,376 "/>
<polygon style="fill:#ABABAB;" points="280,280 376,280 280,376 "/>
<rect x="8" y="88" style="fill:#2B84C3;" width="256" height="128"/>
<path style="fill:#010101;" d="M64,0v80H0v144h64v160h224l96-96V0H64z M16,96h240v112H16V96z M288,361.376V288h73.376L288,361.376z
	 M368,272h-96v96H80V224h192V80H80V16h288V272z"/>
<g>
	<path style="fill:#FFFFFF;" d="M43.136,117.856v26.208h16.128v-26.208h13.824V186.4H59.264v-30.432H43.136V186.4H29.312v-68.544
		C29.312,117.856,43.136,117.856,43.136,117.856z"/>
	<path style="fill:#FFFFFF;" d="M125.824,129.184h-14.976V186.4H97.024v-57.216H82.048v-11.328h43.776V129.184z"/>
	<path style="fill:#FFFFFF;" d="M154.288,117.856l9.776,48.384h0.208l9.888-48.384h20.432V186.4H181.92v-54.72h-0.192l-12.192,54.72
		H158.8l-12.192-54.72h-0.192v54.72h-12.672v-68.544C133.744,117.856,154.288,117.856,154.288,117.856z"/>
	<path style="fill:#FFFFFF;" d="M206.48,117.728h13.84v57.216h24.48v11.328h-38.32V117.728z"/>
</g>
<g>
</g>
<g>
</g>
<g>
</g>
<g>
</g>
<g>
</g>
<g>
</g>
<g>
</g>
<g>
</g>
<g>
</g>
<g>
</g>
<g>
</g>
<g>
</g>
<g>
</g>
<g>
</g>
<g>
</g>
</svg>
