<?xml version="1.0" encoding="iso-8859-1"?>
<!-- Generator: Adobe Illustrator 19.0.0, SVG Export Plug-In . SVG Version: 6.00 Build 0)  -->
<svg version="1.1" id="Capa_1" xmlns="http://www.w3.org/2000/svg" xmlns:xlink="http://www.w3.org/1999/xlink" x="0px" y="0px"
	 viewBox="0 0 512 512" style="enable-background:new 0 0 512 512;" xml:space="preserve">
<path style="fill:#E6E6E6;" d="M358.4,469.333v34.133H17.067v-460.8H128h119.467H358.4v204.8V469.333z"/>
<path style="fill:#8C6239;" d="M247.467,42.667v25.6c0,4.71-3.823,8.533-8.533,8.533h-102.4c-4.71,0-8.533-3.823-8.533-8.533v-51.2
	c0-4.71,3.823-8.533,8.533-8.533h102.4c4.71,0,8.533,3.823,8.533,8.533V42.667z"/>
<path style="fill:#06AAE9;" d="M331.802,260.531c-54.101,28.749-74.658,95.906-45.918,150.016
	c28.74,54.11,95.906,74.658,150.016,45.918c20.412-10.846,36.932-27.802,47.241-48.495L384,358.4L331.802,260.531z"/>
<path style="fill:#39B54A;" d="M489.907,325.308c-18.278-58.479-80.503-91.068-138.974-72.789
	c-6.613,2.065-13.013,4.745-19.132,8.013L384,358.4L489.907,325.308z"/>
<path style="fill:#ED1C24;" d="M489.907,325.308L384,358.4l99.14,49.57C496.034,382.336,498.458,352.7,489.907,325.308
	L489.907,325.308z"/>
<path style="fill:#F8CF26;" d="M131.055,155.017c-4.804-6.255-12.237-9.933-20.122-9.95v-34.133
	c18.432,0,35.823,8.525,47.104,23.091L131.055,155.017z"/>
<path style="fill:#ED1C24;" d="M131.055,155.017c3.533,4.454,5.461,9.967,5.478,15.65h34.133c0-13.278-4.446-26.18-12.629-36.642
	L131.055,155.017z"/>
<path style="fill:#39B54A;" d="M90.146,155.819c4.779-6.733,12.527-10.743,20.787-10.752v-34.133
	c-19.285,0-37.385,9.327-48.563,25.045L90.146,155.819z"/>
<path style="fill:#06AAE9;" d="M90.146,155.819c-8.252,11.477-5.632,27.477,5.845,35.729s27.477,5.632,35.729-5.845
	c3.149-4.378,4.83-9.643,4.813-15.036h34.133c0.051,32.99-26.65,59.776-59.639,59.827c-32.99,0.051-59.776-26.65-59.827-59.639
	c-0.017-12.51,3.891-24.704,11.17-34.876L90.146,155.819z"/>
<path d="M503.467,358.4c0.06-65.92-53.325-119.407-119.245-119.467c-0.077,0-0.145,0-0.222,0
	c-5.717,0.043-11.418,0.495-17.067,1.365V42.667c0-4.71-3.823-8.533-8.533-8.533H256V17.067C256,7.637,248.363,0,238.933,0h-102.4
	c-9.429,0-17.067,7.637-17.067,17.067v17.067h-102.4c-4.71,0-8.533,3.823-8.533,8.533v460.8c0,4.71,3.823,8.533,8.533,8.533H358.4
	c4.71,0,8.533-3.823,8.533-8.533v-26.965c50.978,7.834,101.137-18.372,123.819-64.691
	C499.123,395.247,503.475,376.951,503.467,358.4L503.467,358.4z M406.75,360.235l11.58-3.627l65.63-20.48
	c1.621,7.313,2.441,14.78,2.441,22.272c0.017,13.013-2.492,25.907-7.381,37.973L406.75,360.235z M478.891,319.804l-90.684,28.356
	l-44.698-83.789c51.934-22.383,112.179,1.579,134.562,53.513c0.282,0.649,0.555,1.297,0.819,1.954L478.891,319.804z M136.533,17.067
	h102.4v51.2h-102.4V17.067z M349.867,494.933H25.6V51.2h93.867v17.067c0,9.429,7.637,17.067,17.067,17.067h102.4
	c9.429,0,17.067-7.637,17.067-17.067V51.2h93.867v192.947c-7.637,2.202-15.044,5.171-22.084,8.858
	c-58.197,31.019-80.23,103.347-49.212,161.553c15.019,28.177,40.695,49.161,71.296,58.274V494.933z M384,460.8
	c-56.55-0.017-102.383-45.875-102.366-102.434c0.009-34.748,17.638-67.115,46.822-85.973l48.017,90.027l0.06,0.085
	c0.137,0.247,0.333,0.444,0.486,0.674c0.282,0.435,0.597,0.853,0.947,1.237l0.111,0.119c0.188,0.154,0.393,0.299,0.597,0.435
	c0.393,0.324,0.819,0.606,1.271,0.853c0.085,0.043,0.145,0.119,0.239,0.171l91.187,45.594
	C452.915,442.197,419.746,460.877,384,460.8L384,460.8z"/>
<path d="M110.933,238.933c37.683-0.043,68.224-30.583,68.267-68.267c0.034-15.181-5.043-29.935-14.421-41.882
	c-23.066-29.73-65.86-35.132-95.59-12.066c-5.248,4.07-9.865,8.883-13.722,14.293l6.938,4.966l-6.946-4.966
	c-21.931,30.626-14.891,73.233,15.735,95.164C82.782,234.479,96.683,238.942,110.933,238.933L110.933,238.933z M161.417,162.133
	h-17.57c-0.435-1.681-1.007-3.328-1.707-4.915l13.875-10.786C158.677,151.33,160.503,156.638,161.417,162.133L161.417,162.133z
	 M119.467,120.26c9.719,1.638,18.748,6.093,25.975,12.8l-13.781,10.718c-3.61-2.833-7.757-4.898-12.194-6.067L119.467,120.26z
	 M124.331,160.265c2.355,2.961,3.644,6.622,3.669,10.402c0,9.429-7.637,17.067-17.067,17.067s-17.067-7.637-17.067-17.067
	c-0.043-9.378,7.526-17.015,16.905-17.058C116.079,153.583,121.097,156.049,124.331,160.265z M102.4,120.32v17.382
	c-4.898,1.28-9.455,3.635-13.329,6.895l-14.14-10.095C82.415,127.061,92.006,122.112,102.4,120.32L102.4,120.32z M64.947,148.309
	l14.234,10.163c-1.545,3.883-2.355,8.013-2.381,12.194c-0.026,18.816,15.206,34.082,34.022,34.108
	c15.556,0.017,29.15-10.505,33.033-25.574h17.51c-4.873,27.853-31.411,46.481-59.264,41.6
	c-24.388-4.267-42.223-25.378-42.368-50.133C59.733,162.91,61.517,155.264,64.947,148.309z"/>
<path d="M213.333,110.933h110.933V128H213.333V110.933z"/>
<path d="M213.333,145.067h110.933v17.067H213.333V145.067z"/>
<path d="M213.333,179.2h110.933v17.067H213.333V179.2z"/>
<path d="M213.333,213.333h59.733V230.4h-59.733V213.333z"/>
<path d="M76.8,418.133H51.2c-4.71,0-8.533,3.823-8.533,8.533v42.667c0,4.71,3.823,8.533,8.533,8.533h25.6
	c4.71,0,8.533-3.823,8.533-8.533v-42.667C85.333,421.956,81.51,418.133,76.8,418.133z M68.267,460.8h-8.533v-25.6h8.533V460.8z"/>
<path d="M128,384h-25.6c-4.71,0-8.533,3.823-8.533,8.533v76.8c0,4.71,3.823,8.533,8.533,8.533H128c4.71,0,8.533-3.823,8.533-8.533
	v-76.8C136.533,387.823,132.71,384,128,384z M119.467,460.8h-8.533v-59.733h8.533V460.8z"/>
<path d="M179.2,341.333h-25.6c-4.71,0-8.533,3.823-8.533,8.533v119.467c0,4.71,3.823,8.533,8.533,8.533h25.6
	c4.71,0,8.533-3.823,8.533-8.533V349.867C187.733,345.156,183.91,341.333,179.2,341.333z M170.667,460.8h-8.533V358.4h8.533V460.8z"
	/>
<path d="M230.4,298.667h-25.6c-4.71,0-8.533,3.823-8.533,8.533v162.133c0,4.71,3.823,8.533,8.533,8.533h25.6
	c4.71,0,8.533-3.823,8.533-8.533V307.2C238.933,302.49,235.11,298.667,230.4,298.667z M221.867,460.8h-8.533V315.733h8.533V460.8z"
	/>
<path d="M42.667,256h68.267v17.067H42.667V256z"/>
<path d="M42.667,281.6h68.267v17.067H42.667V281.6z"/>
<path d="M42.667,307.2H76.8v17.067H42.667V307.2z"/>
<g>
</g>
<g>
</g>
<g>
</g>
<g>
</g>
<g>
</g>
<g>
</g>
<g>
</g>
<g>
</g>
<g>
</g>
<g>
</g>
<g>
</g>
<g>
</g>
<g>
</g>
<g>
</g>
<g>
</g>
</svg>
