<?xml version="1.0" encoding="iso-8859-1"?>
<!-- Generator: Adobe Illustrator 19.0.0, SVG Export Plug-In . SVG Version: 6.00 Build 0)  -->
<svg version="1.1" id="Capa_1" xmlns="http://www.w3.org/2000/svg" xmlns:xlink="http://www.w3.org/1999/xlink" x="0px" y="0px"
	 viewBox="0 0 384 384" style="enable-background:new 0 0 384 384;" xml:space="preserve">
<linearGradient id="SVGID_1_" gradientUnits="userSpaceOnUse" x1="2.825" y1="449.925" x2="31.785" y2="420.965" gradientTransform="matrix(8 0 0 -8 847 4437)">
	<stop  offset="0" style="stop-color:#EFEEEE"/>
	<stop  offset="1" style="stop-color:#DEDEDD"/>
</linearGradient>
<polygon style="fill:url(#SVGID_1_);" points="72,8 376,8 376,280 280,376 72,376 "/>
<polygon style="fill:#ABABAB;" points="280,280 376,280 280,376 "/>
<rect x="8" y="88" style="fill:#CB5641;" width="256" height="128"/>
<path style="fill:#010101;" d="M64,0v80H0v144h64v160h224l96-96V0H64z M16,96h240v112H16V96z M288,361.376V288h73.376L288,361.376z
	 M368,272h-96v96H80V224h192V80H80V16h288V272z"/>
<g>
	<path style="fill:#FFFFFF;" d="M72.992,117.856c3.52,0,6.464,0.592,8.88,1.776s4.336,2.736,5.808,4.656s2.528,4.112,3.168,6.576
		c0.624,2.448,0.96,4.976,0.96,7.536c0,3.52-0.528,6.592-1.584,9.216c-1.056,2.624-2.528,4.768-4.416,6.416
		c-1.888,1.664-4.176,2.928-6.864,3.744c-2.688,0.816-5.664,1.264-8.928,1.264h-7.392v27.36H48.8v-68.544L72.992,117.856z
		 M68.768,148.896c2.752,0,4.992-0.848,6.672-2.512c1.696-1.664,2.544-4.256,2.544-7.776c0-3.456-0.736-6.08-2.208-7.872
		c-1.472-1.776-3.936-2.688-7.392-2.688h-5.76v20.848C62.624,148.896,68.768,148.896,68.768,148.896z"/>
	<path style="fill:#FFFFFF;" d="M131.552,117.84c4.816,0,8.672,0.8,11.632,2.368c2.944,1.568,5.232,3.792,6.864,6.72
		c1.648,2.912,2.736,6.4,3.312,10.512c0.576,4.096,0.864,8.672,0.864,13.712c0,6.016-0.352,11.248-1.088,15.696
		c-0.736,4.432-2,8.112-3.792,10.992c-1.792,2.896-4.192,5.024-7.2,6.432c-3.008,1.408-6.816,2.112-11.424,2.112h-21.824V117.84
		H131.552z M128.864,176.24c2.432,0,4.384-0.416,5.856-1.248s2.64-2.208,3.504-4.128c0.88-1.92,1.456-4.448,1.728-7.6
		c0.288-3.12,0.432-7.024,0.432-11.696c0-3.904-0.144-7.328-0.384-10.288c-0.256-2.944-0.784-5.392-1.584-7.344
		c-0.816-1.952-1.984-3.424-3.568-4.4c-1.568-0.992-3.664-1.504-6.288-1.504h-5.84v48.208L128.864,176.24z"/>
	<path style="fill:#FFFFFF;" d="M211.232,117.856v11.328h-24.48v16.128h23.04v11.328h-23.04v29.76h-13.824v-68.544L211.232,117.856
		L211.232,117.856z"/>
</g>
<g>
</g>
<g>
</g>
<g>
</g>
<g>
</g>
<g>
</g>
<g>
</g>
<g>
</g>
<g>
</g>
<g>
</g>
<g>
</g>
<g>
</g>
<g>
</g>
<g>
</g>
<g>
</g>
<g>
</g>
</svg>
