<svg id="Capa_1" enable-background="new 0 0 512 512" height="512" viewBox="0 0 512 512" width="512" xmlns="http://www.w3.org/2000/svg"><path d="m470.75 52.5-227 82.5v254.5h30l30-60 7.5-20 7.5 20h30v-30l45-45-30-45 32-52c12.427 0 22.5-10.074 22.5-22.5l82.5-52.5v-30z" fill="#ff9a42"/><g fill="#ffba48"><path d="m363.75 254.5-30-45 32-52c12.427 0 22.5-10.074 22.5-22.5l82.5-52.5v-30h-45c-8.284 0-15 6.716-15 15l-90-15c0-16.569-13.431-30-30-30h-201.023c-5.188-8.964-14.874-15-25.977-15-16.569 0-30 13.431-30 30h-7.5c-12.426 0-22.5 10.074-22.5 22.5v37.5h67.5c0 12.426 10.074 22.5 22.5 22.5l-15 112h-37.5c0 12.426 10.073 22.5 22.5 22.5v15c0 8.284 6.716 15 15 15v49.023c-9.068 5.247-15.138 15.098-14.998 26.36.207 16.517 14.074 29.616 30.592 29.616h29.406l30 30c16.569 0 30-13.431 30-30h60l30-60h45v-30z"/><path d="m423.75 234.5 22.5 22.5c12.426 0 22.5-10.074 22.5-22.5v-22.5z"/><path d="m74.871 474.5v15c0 8.284 6.716 15 15 15s15-6.716 15-15v-15z"/></g><circle cx="442.5" cy="321.991" r="7.5"/><circle cx="7.5" cy="504.5" r="7.5"/><circle cx="48.621" cy="489.5" r="7.5"/><path d="m442.793 281.697c-2.928-2.93-7.677-2.929-10.606 0l-9.99 9.991c-2.929 2.929-2.929 7.678.001 10.606 1.464 1.465 3.384 2.197 5.303 2.197s3.839-.732 5.304-2.197l9.99-9.991c2.928-2.929 2.928-7.677-.002-10.606z"/><path d="m509.804 191.697-10.606-10.606c-2.93-2.929-7.678-2.929-10.607 0s-2.929 7.678 0 10.606l10.606 10.606c1.465 1.464 3.385 2.197 5.304 2.197s3.839-.732 5.304-2.197c2.927-2.928 2.927-7.677-.001-10.606z"/><path d="m476.443 205.62c-2.213-1.367-4.974-1.49-7.298-.328l-45 22.5c-2.156 1.078-3.662 3.127-4.049 5.507-.386 2.379.396 4.8 2.1 6.504l22.5 22.5c1.407 1.407 3.314 2.197 5.304 2.197 16.542 0 30-13.458 30-30v-22.5c0-2.599-1.346-5.013-3.557-6.38zm-11.443 28.88c0 7.301-5.243 13.401-12.162 14.731l-12.677-12.676 24.839-12.42z"/><path d="m17.812 449.206c-2.928-2.93-7.677-2.929-10.606 0s-2.929 7.678.001 10.606l9.991 9.991c1.463 1.465 3.383 2.197 5.302 2.197s3.839-.732 5.304-2.197c2.929-2.929 2.929-7.678-.001-10.606z"/><path d="m123.621 467h-45c-4.143 0-7.5 3.358-7.5 7.5v15c0 12.407 10.094 22.5 22.5 22.5s22.5-10.093 22.5-22.5v-7.5h7.5c4.143 0 7.5-3.358 7.5-7.5s-3.357-7.5-7.5-7.5zm-22.5 22.5c0 4.136-3.364 7.5-7.5 7.5s-7.5-3.364-7.5-7.5v-7.5h15z"/><path d="m164.228 468.287-15.909 15.91c-2.93 2.929-2.93 7.677-.001 10.606 1.465 1.465 3.384 2.197 5.304 2.197 1.919 0 3.839-.732 5.304-2.197l15.909-15.91c2.93-2.929 2.93-7.677.001-10.606s-7.678-2.929-10.608 0z"/><path d="m195.431 437.083-9.99 9.991c-2.929 2.929-2.929 7.678.001 10.606 1.464 1.465 3.384 2.197 5.303 2.197s3.839-.732 5.304-2.197l9.99-9.991c2.929-2.929 2.929-7.678-.001-10.606-2.929-2.93-7.678-2.929-10.607 0z"/><path d="m376.406 209.338 27.481-44.658c13.062-1.922 23.412-12.294 25.303-25.366l79.336-50.486c2.163-1.377 3.474-3.763 3.474-6.328v-30c0-4.142-3.357-7.5-7.5-7.5h-75c-9.374 0-17.427 5.761-20.804 13.929l-77.251-12.875c-3.064-17.617-18.465-31.054-36.945-31.054-4.143 0-7.5 3.358-7.5 7.5s3.357 7.5 7.5 7.5c12.406 0 22.5 10.093 22.5 22.5 0 3.667 2.65 6.795 6.267 7.398l90 15c2.178.362 4.399-.25 6.081-1.675 1.682-1.426 2.652-3.518 2.652-5.723 0-4.136 3.364-7.5 7.5-7.5h67.5v18.383l-79.026 50.29c-2.163 1.377-3.474 3.763-3.474 6.328 0 8.271-6.729 15-15 15-2.604 0-5.022 1.351-6.388 3.569l-32 52c-1.535 2.494-1.478 5.654.147 8.091l26.589 39.884-40.652 40.652c-1.406 1.406-2.196 3.314-2.196 5.303v22.5h-37.5c-2.841 0-5.438 1.605-6.708 4.146l-27.927 55.854h-85.365c-4.143 0-7.5 3.358-7.5 7.5 0 11.417-8.549 20.876-19.582 22.312l-27.614-27.615c-1.407-1.407-3.314-2.197-5.304-2.197h-29.405c-12.58 0-22.939-9.963-23.094-22.21-.101-8.122 4.212-15.699 11.256-19.775 2.316-1.341 3.743-3.815 3.743-6.491v-49.024c0-4.142-3.357-7.5-7.5-7.5-4.136 0-7.5-3.364-7.5-7.5v-15c0-4.142-3.357-7.5-7.5-7.5-5.541 0-10.39-3.02-12.987-7.5h27.987c3.758 0 6.935-2.78 7.434-6.504l15-112c.287-2.144-.365-4.307-1.789-5.935-1.425-1.627-3.481-2.561-5.645-2.561-8.271 0-15-6.729-15-15 0-4.142-3.357-7.5-7.5-7.5h-60v-30c0-8.271 6.729-15 15-15h7.5c4.143 0 7.5-3.358 7.5-7.5 0-12.407 10.094-22.5 22.5-22.5 8.001 0 15.467 4.313 19.485 11.256 1.341 2.317 3.815 3.744 6.492 3.744h171.023c4.143 0 7.5-3.358 7.5-7.5s-3.357-7.5-7.5-7.5h-167.011c-7.031-9.348-18.158-15-29.989-15-18.109 0-33.262 12.905-36.747 30h-.753c-16.542 0-30 13.458-30 30v37.5c0 4.142 3.357 7.5 7.5 7.5h60.949c2.64 10.221 10.547 18.348 20.64 21.3l-13.151 98.2h-30.938c-4.143 0-7.5 3.358-7.5 7.5 0 13.953 9.575 25.712 22.5 29.051v8.449c0 9.778 6.27 18.12 15 21.215v38.793c-9.492 7.132-15.147 18.442-14.997 30.47.256 20.414 17.344 37.022 38.092 37.022h26.299l27.803 27.803c1.407 1.407 3.314 2.197 5.304 2.197 18.109 0 33.262-12.905 36.747-30h83.252c2.841 0 5.438-1.605 6.708-4.146l27.927-55.854h40.365c4.143 0 7.5-3.358 7.5-7.5v-26.894l42.804-42.803c2.527-2.528 2.92-6.489.937-9.463z"/></svg>