<?xml version="1.0" encoding="iso-8859-1"?>
<!-- Generator: Adobe Illustrator 19.0.0, SVG Export Plug-In . SVG Version: 6.00 Build 0)  -->
<svg version="1.1" id="Capa_1" xmlns="http://www.w3.org/2000/svg" xmlns:xlink="http://www.w3.org/1999/xlink" x="0px" y="0px"
	 viewBox="0 0 384 384" style="enable-background:new 0 0 384 384;" xml:space="preserve">
<polygon style="fill:#EFEEEE;" points="72,8 376,8 376,280 280,376 72,376 "/>
<polygon style="fill:#ABABAB;" points="280,280 376,280 280,376 "/>
<rect x="8" y="88" style="fill:#61B565;" width="256" height="128"/>
<g>
	<path style="fill:#010101;" d="M64,0v80H0v144h64v160h224l96-96V0H64z M16,96h240v112H16V96z M288,361.376V288h73.376L288,361.376z
		 M368,272h-96v96H80V224h192V80H80V16h288V272z"/>
	<path style="fill:#010101;" d="M61.184,117.856l8.832,22.176l8.736-22.176h15.072l-15.936,33.888L94.976,186.4H79.424
		l-9.872-23.232L59.744,186.4H44.576l17.088-34.656L45.92,117.856L61.184,117.856L61.184,117.856z"/>
	<path style="fill:#010101;" d="M109.952,117.856h13.824v57.216h24.464V186.4h-38.288
		C109.952,186.4,109.952,117.856,109.952,117.856z"/>
	<path style="fill:#010101;" d="M175.136,167.008c0,1.6,0.128,3.056,0.368,4.352c0.272,1.312,0.736,2.416,1.44,3.312
		c0.704,0.912,1.664,1.616,2.848,2.128c1.168,0.496,2.672,0.768,4.448,0.768c2.128,0,4.016-0.688,5.712-2.064
		c1.68-1.376,2.544-3.52,2.544-6.384c0-1.536-0.224-2.864-0.624-3.984c-0.416-1.12-1.104-2.128-2.064-3.008
		c-0.976-0.912-2.24-1.712-3.792-2.448s-3.504-1.488-5.808-2.256c-3.056-1.024-5.712-2.16-7.968-3.376
		c-2.24-1.2-4.112-2.624-5.616-4.272c-1.504-1.632-2.608-3.52-3.312-5.664c-0.704-2.16-1.056-4.624-1.056-7.456
		c0-6.784,1.888-11.824,5.664-15.152c3.76-3.328,8.96-4.992,15.552-4.992c3.072,0,5.904,0.336,8.496,1.008
		c2.592,0.672,4.832,1.744,6.72,3.264c1.888,1.504,3.36,3.424,4.416,5.744c1.04,2.336,1.584,5.136,1.584,8.4v1.92H191.44
		c0-3.264-0.576-5.776-1.712-7.552c-1.152-1.744-3.072-2.64-5.76-2.64c-1.536,0-2.816,0.24-3.84,0.672
		c-1.008,0.448-1.84,1.04-2.448,1.776s-1.008,1.584-1.232,2.544c-0.24,0.96-0.336,1.952-0.336,2.976
		c0,2.128,0.448,3.888,1.344,5.328c0.896,1.456,2.816,2.784,5.76,3.984l10.656,4.608c2.624,1.152,4.768,2.352,6.416,3.616
		c1.664,1.248,3.008,2.592,3.984,4.032c0.992,1.44,1.68,3.008,2.064,4.752c0.384,1.712,0.576,3.648,0.576,5.744
		c0,7.232-2.096,12.496-6.288,15.792s-10.032,4.96-17.52,4.96c-7.808,0-13.392-1.696-16.768-5.088
		c-3.36-3.392-5.024-8.256-5.024-14.592v-2.784h13.824L175.136,167.008z"/>
</g>
<g>
</g>
<g>
</g>
<g>
</g>
<g>
</g>
<g>
</g>
<g>
</g>
<g>
</g>
<g>
</g>
<g>
</g>
<g>
</g>
<g>
</g>
<g>
</g>
<g>
</g>
<g>
</g>
<g>
</g>
</svg>
