<?xml version="1.0" encoding="iso-8859-1"?>
<!-- Generator: Adobe Illustrator 19.0.0, SVG Export Plug-In . SVG Version: 6.00 Build 0)  -->
<svg version="1.1" id="Capa_1" xmlns="http://www.w3.org/2000/svg" xmlns:xlink="http://www.w3.org/1999/xlink" x="0px" y="0px"
	 viewBox="0 0 384 384" style="enable-background:new 0 0 384 384;" xml:space="preserve">
<polygon style="fill:#EFEEEE;" points="72,8 376,8 376,280 280,376 72,376 "/>
<polygon style="fill:#ABABAB;" points="280,280 376,280 280,376 "/>
<rect x="8" y="88" style="fill:#CB5641;" width="256" height="128"/>
<path style="fill:#010101;" d="M64,0v80H0v144h64v160h224l96-96V0H64z M16,96h240v112H16V96z M288,361.376V288h73.376L288,361.376z
	 M368,272h-96v96H80V224h192V80H80V16h288V272z"/>
<g>
	<path style="fill:#FFFFFF;" d="M61.184,117.856l8.848,22.176l8.72-22.176h15.072l-15.92,33.888L94.976,186.4H79.44l-9.888-23.232
		L59.744,186.4H44.592l17.072-34.656l-15.728-33.888L61.184,117.856z"/>
	<path style="fill:#FFFFFF;" d="M128.88,117.856l9.776,48.384h0.208l9.888-48.384h20.432V186.4h-12.656v-54.72h-0.208l-12.192,54.72
		H133.36l-12.192-54.72h-0.176v54.72h-12.656v-68.544L128.88,117.856z"/>
	<path style="fill:#FFFFFF;" d="M186.736,117.856h13.856v57.216h24.464V186.4h-38.32C186.736,186.4,186.736,117.856,186.736,117.856
		z"/>
</g>
<g>
</g>
<g>
</g>
<g>
</g>
<g>
</g>
<g>
</g>
<g>
</g>
<g>
</g>
<g>
</g>
<g>
</g>
<g>
</g>
<g>
</g>
<g>
</g>
<g>
</g>
<g>
</g>
<g>
</g>
</svg>
